<svg width="186" height="32" viewBox="0 0 93 16" fill="none" xmlns="http://www.w3.org/2000/svg">
<path d="M13.64 3.72H8.72L6.74 15H3.12L5.1 3.72H0.16L0.72 0.599999H14.2L13.64 3.72ZM21.0458 0.599999C22.5658 0.599999 23.6458 0.933333 24.2858 1.6C24.7658 2.10667 25.0058 2.74667 25.0058 3.52C25.0058 3.78667 24.9791 4.06667 24.9258 4.36L24.6458 5.92C24.4858 6.78667 24.2058 7.48667 23.8058 8.02C23.4191 8.55333 22.9858 8.93333 22.5058 9.16L24.3258 15H20.2858L18.6058 9.62H17.3658L16.5458 15H12.7058L15.2458 0.599999H21.0458ZM19.7858 3.72H18.2858L17.7658 7.2H19.1658C19.8724 7.2 20.3791 7.03333 20.6858 6.7C20.9924 6.35333 21.1458 5.9 21.1458 5.34C21.1458 4.26 20.6924 3.72 19.7858 3.72ZM31.3708 0.599999L28.8508 15H25.2308L27.7708 0.599999H31.3708ZM37.8361 10.62H35.4561L34.6761 15H31.0761L33.6161 0.599999H39.7161C41.2228 0.599999 42.2961 0.946666 42.9361 1.64C43.4028 2.17333 43.6361 2.85333 43.6361 3.68C43.6361 3.96 43.6094 4.25333 43.5561 4.56L43.1561 6.82C42.9561 7.92667 42.3694 8.84 41.3961 9.56C40.4228 10.2667 39.2361 10.62 37.8361 10.62ZM38.4561 3.72H36.6561L35.9961 7.5H37.7761C38.8694 7.5 39.5028 7.01333 39.6761 6.04L39.8161 5.22C39.8428 5.1 39.8561 4.94 39.8561 4.74C39.8561 4.54 39.7561 4.32 39.5561 4.08C39.3561 3.84 38.9894 3.72 38.4561 3.72ZM47.05 10.9C47.05 11.82 47.71 12.28 49.03 12.28C50.3633 12.28 51.03 11.8667 51.03 11.04C51.03 10.6 50.8033 10.24 50.35 9.96C49.8967 9.68 49.3433 9.44667 48.69 9.26C48.05 9.07333 47.4033 8.86 46.75 8.62C46.11 8.36667 45.5633 7.98 45.11 7.46C44.6567 6.92667 44.43 6.26667 44.43 5.48C44.43 2.13333 46.5833 0.459999 50.89 0.459999C52.4633 0.459999 53.65 0.759999 54.45 1.36C55.2633 1.94667 55.67 2.76667 55.67 3.82C55.67 4.20667 55.6167 4.58 55.51 4.94C55.4167 5.28667 55.3167 5.53333 55.21 5.68L55.05 5.92H51.51C51.8033 5.61333 51.95 5.22667 51.95 4.76C51.95 3.89333 51.3833 3.46 50.25 3.46C48.8233 3.46 48.11 3.91333 48.11 4.82C48.11 5.27333 48.3367 5.63333 48.79 5.9C49.2433 6.16667 49.79 6.38 50.43 6.54C51.0833 6.68667 51.7367 6.87333 52.39 7.1C53.0433 7.32667 53.5967 7.70667 54.05 8.24C54.5033 8.76 54.73 9.44 54.73 10.28C54.73 11.9733 54.2233 13.2333 53.21 14.06C52.1967 14.8733 50.6367 15.28 48.53 15.28C46.4233 15.28 44.9833 14.9067 44.21 14.16C43.6367 13.6 43.35 12.8267 43.35 11.84C43.35 11.4667 43.39 11.06 43.47 10.62L43.53 10.3H47.13L47.09 10.54C47.0633 10.6733 47.05 10.7933 47.05 10.9ZM62.6211 15L62.7411 11.86H59.4011L58.4211 15H54.6011L59.7411 0.599999H66.3411L66.4211 15H62.6211ZM61.8011 4.1L60.2211 9.18H62.8411L63.0611 4.1H61.8011ZM72.7336 15.28C70.8403 15.28 69.5336 14.84 68.8136 13.96C68.3203 13.3467 68.0736 12.5067 68.0736 11.44C68.0736 10.9467 68.1269 10.4067 68.2336 9.82L68.9336 5.82C69.5603 2.24667 71.7469 0.459999 75.4936 0.459999C77.0403 0.459999 78.2136 0.793332 79.0136 1.46C79.8136 2.11333 80.2136 3.01333 80.2136 4.16C80.2136 4.62667 80.1469 5.1 80.0136 5.58C79.8936 6.06 79.7736 6.42 79.6536 6.66L79.4536 7.02H75.9136C76.2603 6.54 76.4336 5.98667 76.4336 5.36C76.4336 4.16 75.9336 3.56 74.9336 3.56C73.5869 3.56 72.7803 4.34 72.5136 5.9L71.8336 9.74C71.7669 10.1 71.7336 10.4533 71.7336 10.8C71.7336 11.72 72.2736 12.18 73.3536 12.18C74.4469 12.18 75.1469 11.6333 75.4536 10.54H73.8136L74.2136 8.32H79.5136L79.1936 10.04L79.0936 10.62C78.5336 13.7267 76.4136 15.28 72.7336 15.28ZM90.1419 15H80.1019L82.6419 0.599999H92.6819L92.1219 3.72H85.6819L85.2219 6.42H90.5419L89.9819 9.54H84.6619L84.2619 11.88H90.7019L90.1419 15Z" fill="white"/>
</svg>
